<?xml version="1.0" standalone="no"?>
<!DOCTYPE svg PUBLIC "-//W3C//DTD SVG 1.1//EN" "http://www.w3.org/Graphics/SVG/1.1/DTD/svg11.dtd">
<svg xmlns="http://www.w3.org/2000/svg" width="1529" height="437" viewBox="0 0 1529 437" fill="none">
<path d="M587.482 435.356C583.677 434.893 580.109 434.059 579.553 433.503C578.583 432.533 583.108 427.619 615.707 394.24L630.357 379.24H695.379C741.431 379.24 760.401 379.664 760.401 380.694C760.401 382.014 747.883 398.817 726.473 426.24L718.405 436.573L656.403 436.385C622.302 436.282 591.287 435.819 587.482 435.356ZM782.03 416.906L782.401 398.573L838.319 398.225C869.074 398.033 894.675 398.333 895.21 398.892C895.745 399.45 890.434 407.856 883.408 417.573L870.633 435.24H826.146H781.659L782.03 416.906ZM1042.54 417.752C1035.51 408.134 1030.1 399.734 1030.5 399.085C1030.9 398.434 1055.53 397.906 1085.58 397.906H1139.94L1142.65 400.906C1148.39 407.242 1166.87 433.663 1166.1 434.432C1165.65 434.876 1140.54 435.24 1110.3 435.24H1055.31L1042.54 417.752ZM1175.96 433.017C1175.47 432.529 1175.07 364.034 1175.07 280.807V129.485L1212.73 79.1213C1237.16 46.462 1251.34 28.6081 1253.07 28.332C1254.53 28.0979 1258.58 28.1143 1262.07 28.3684L1268.4 28.8304V189.368V349.906L1393.4 349.921C1462.15 349.929 1520.65 350.308 1523.4 350.762C1532.57 352.278 1532.99 351.618 1485.59 410C1478.7 418.485 1471.46 427.335 1469.49 429.667L1465.91 433.906H1321.38C1241.88 433.906 1176.45 433.506 1175.96 433.017ZM1245.44 393.573L1245.07 373.24L1233.48 369.398C1227.11 367.285 1220.96 365.917 1219.82 366.356C1218.17 366.99 1217.73 369.393 1217.73 377.954C1217.73 388.535 1217.67 388.734 1214.73 387.836C1206.16 385.218 1203.07 383.279 1203.07 380.524C1203.07 377.929 1203.55 377.754 1208.47 378.585L1213.87 379.498L1213.47 371.714C1213.04 363.378 1211.91 362.139 1202.7 359.852L1199 358.933L1199.37 379.416L1199.73 399.899L1207.73 402.823C1212.13 404.432 1217.38 405.783 1219.4 405.827L1223.07 405.906V395.24C1223.07 383.041 1222.94 383.135 1234.62 386.817C1240.66 388.722 1241.73 389.55 1241.73 392.317C1241.73 395.814 1242.53 395.771 1230.07 392.943C1227.23 392.3 1227.07 392.675 1227.07 399.672C1227.07 407.79 1227.33 408.126 1236.37 411.47C1246.35 415.161 1245.84 416.164 1245.44 393.573ZM1259.07 235.142C1259.07 84.6555 1258.95 76.401 1256.73 76.8269C1254.53 77.2513 1254.38 86.0294 1254.06 235.591C1253.72 393.238 1253.73 393.906 1256.4 393.906C1259.05 393.906 1259.07 393.125 1259.07 235.142ZM1245.45 350.687C1245.67 342.053 1245.28 335.582 1244.47 334.776C1242.39 332.696 1241.41 334.548 1240.7 341.877C1240.35 345.579 1239.39 348.563 1238.56 348.55C1237.74 348.538 1228.07 345.662 1217.07 342.159L1197.07 335.79L1196.65 330.848C1196.13 324.554 1192.4 323.866 1192.4 330.062C1192.4 333.729 1192.05 334.12 1189.4 333.385C1179.58 330.659 1180.4 330.149 1180.4 338.985V347.019L1186.07 349.166C1201.76 355.111 1237.56 365.749 1241.07 365.511L1245.07 365.24L1245.45 350.687ZM1245.44 309.664L1245.8 290.089L1234.77 286.694C1228.7 284.826 1218.93 281.794 1213.07 279.956C1207.2 278.117 1201.65 276.604 1200.73 276.593C1198.12 276.562 1198.63 287.737 1201.4 291.156C1202.95 293.069 1209.77 295.951 1221.73 299.753C1238.84 305.187 1239.76 305.659 1240.17 309.206C1240.49 311.873 1240.11 312.752 1238.84 312.281C1237.87 311.919 1229.45 309.337 1220.14 306.543C1200.64 300.69 1199.07 300.994 1199.07 310.626C1199.07 316.137 1199.28 316.434 1204.73 318.503C1218.22 323.622 1238.67 329.681 1241.73 329.47L1245.07 329.24L1245.44 309.664ZM1245.44 265.173C1245.79 248.394 1245.69 247.669 1242.67 244.826C1239.96 242.28 1195.95 227.24 1191.21 227.24C1190.3 227.24 1189.73 230.264 1189.73 235.153C1189.73 242.987 1189.78 243.084 1194.4 244.755L1199.07 246.442V256.608C1199.07 265.639 1199.43 267.114 1202.29 269.806C1206.12 273.403 1235.29 283.201 1241.07 282.83L1245.07 282.573L1245.44 265.173ZM1221.07 260.65C1206.4 255.946 1205.03 255.229 1204.65 252.046C1204.41 250.136 1204.62 248.573 1205.11 248.573C1205.59 248.573 1213.73 251.014 1223.2 253.997C1239.04 258.993 1240.4 259.677 1240.4 262.664C1240.4 264.447 1239.65 265.878 1238.73 265.844C1237.82 265.81 1229.87 263.473 1221.07 260.65ZM1245.47 228.906L1245.07 221.24L1224.4 214.32C1213.03 210.514 1202.68 207.364 1201.4 207.32C1199.46 207.253 1199.07 208.439 1199.07 214.41C1199.07 218.87 1199.76 222.155 1200.9 223.103C1203.26 225.063 1238.76 236.42 1242.8 236.507C1245.7 236.569 1245.84 236.149 1245.47 228.906ZM1189.73 212.173C1189.73 204.459 1188.18 201.906 1183.47 201.906C1180.64 201.906 1180.4 202.479 1180.4 209.173C1180.4 216.708 1182.08 219.107 1187.4 219.199C1189.33 219.233 1189.73 218.03 1189.73 212.173ZM1245.73 195.399C1245.73 179.88 1245.48 178.094 1243 175.849C1241.5 174.49 1232.14 170.811 1222.19 167.674C1198.29 160.137 1199.07 159.686 1199.07 181.139C1199.07 194.907 1199.45 198.089 1201.43 200.523C1204.6 204.449 1239.94 215.58 1243.38 213.739C1245.44 212.636 1245.73 210.359 1245.73 195.399ZM1223.08 192.421C1213.92 189.514 1205.92 186.627 1205.3 186.008C1204.68 185.388 1204.38 183.683 1204.62 182.22C1205.05 179.672 1205.82 179.79 1222.73 185.005C1239.89 190.293 1240.4 190.558 1240.4 194.178C1240.4 196.229 1240.25 197.862 1240.07 197.807C1239.88 197.753 1232.24 195.329 1223.08 192.421ZM1245.44 150.923C1245.07 130.631 1245.06 130.604 1241.68 128.983C1239.81 128.09 1235.73 126.951 1232.61 126.451L1226.92 125.543L1227.33 133.381L1227.73 141.219L1234.73 143.73C1240.51 145.801 1241.73 146.795 1241.73 149.407C1241.73 153.18 1241.86 153.171 1231.73 150.146L1223.73 147.755L1223.34 136.564C1223.13 130.409 1222.34 124.641 1221.6 123.747C1220.34 122.225 1203.74 116.573 1200.53 116.573C1199.53 116.573 1199.07 122.935 1199.07 136.428V156.284L1204.43 158.428C1213.33 161.989 1213.92 161.625 1213.47 152.906C1213.08 145.514 1212.89 145.152 1208.07 142.797C1203.55 140.59 1201.66 137.095 1203.81 134.942C1204.22 134.534 1207.52 135.148 1211.14 136.308L1217.73 138.415L1217.75 149.161C1217.76 155.071 1218.27 160.69 1218.88 161.647C1219.79 163.086 1241.32 171.019 1244.77 171.189C1245.34 171.217 1245.64 162.097 1245.44 150.923ZM1484.62 432.639C1485.43 430.326 1526.25 380.573 1527.33 380.573C1527.92 380.573 1528.4 383.897 1528.4 387.96V395.346L1512.77 414.626L1497.15 433.906H1490.66C1487.1 433.906 1484.38 433.336 1484.62 432.639ZM1515.89 432.24C1518.17 428.392 1526.15 419.24 1527.23 419.24C1527.87 419.24 1528.4 422.54 1528.4 426.573V433.906H1521.66C1516.62 433.906 1515.16 433.483 1515.89 432.24ZM556.734 428.244C554.351 427.479 552.401 426.402 552.401 425.851C552.401 425.299 562.363 414.585 574.538 402.043L596.676 379.24H603.205C606.796 379.24 609.734 379.725 609.734 380.318C609.734 381.708 563.119 429.951 561.95 429.77C561.464 429.695 559.117 429.009 556.734 428.244ZM528.606 413.847C517.87 407.036 501.07 390.106 495.261 380.244C478.114 351.131 475.766 314.299 489.204 285.24C503.831 253.607 539.745 229.595 581.734 223.373C587.566 222.508 616.741 221.734 651.734 221.514C713.023 221.13 729.786 221.454 729.667 223.02C729.63 223.508 717.779 236.058 703.333 250.91L677.067 277.913L637.067 278.657C594.519 279.45 589.021 280.178 576.076 286.737C562.492 293.621 552.478 306.196 549.709 319.847C545.445 340.867 554.737 360.258 574.388 371.349L581.765 375.512L560.918 397.376C549.451 409.401 539.394 419.234 538.569 419.227C537.743 419.22 533.26 416.799 528.606 413.847ZM207.067 414.234C207.067 412.69 597.66 22.8813 603.734 18.3637C612.45 11.8807 620.726 7.56658 631.88 3.69209C641.508 0.348085 644.098 0.0348557 662.401 0.0022357C680.799 -0.0305643 683.229 0.257246 692.743 3.59663C709.195 9.37132 717.375 14.6731 731.121 28.4713C741.52 38.9093 744.859 43.3082 749.412 52.5731C759.404 72.9043 759.613 74.7324 759.677 142.126C759.708 174.88 759.357 202.057 758.897 202.519C757.903 203.516 666.07 204.859 663.107 203.92C661.325 203.355 661.113 198.178 661.427 162.923C661.822 118.686 662.174 120.766 653.381 115.397L648.361 112.331L643.381 116.654C624.471 133.069 487.529 268.863 405.131 352.906L344.019 415.24H275.543C237.881 415.24 207.067 414.787 207.067 414.234ZM189.313 413.041C188.811 412.539 188.401 348.929 188.401 271.684V131.24H95.843C44.9363 131.24 2.32756 130.872 1.15685 130.423C-1.41077 129.438 -4.54852 133.045 50.0232 74.2397L91.1648 29.9064H327.116C456.889 29.9064 563.067 30.2698 563.067 30.7139C563.067 32.1404 556.84 39.0163 513.397 85.56L470.759 131.24H402.247H333.734V201.608V271.976L279.401 325.967C203.689 401.201 190.359 414.086 189.313 413.041ZM781.734 370.573V352.573H855.887H930.041L927.705 356.24C926.421 358.256 920.589 366.356 914.746 374.24L904.122 388.573H842.928H781.734V370.573ZM1009.06 371.573C1002.13 362.223 996.44 354.123 996.426 353.573C996.412 353.023 1021.48 352.573 1052.14 352.573H1107.88L1120.14 369.245C1126.88 378.414 1132.4 386.514 1132.4 387.245C1132.4 388.106 1112.92 388.573 1077.04 388.573H1021.68L1009.06 371.573ZM781.734 323.906V305.906L928.067 305.932L1074.4 305.957L1085.86 322.265C1092.16 331.234 1097.75 339.323 1098.27 340.24C1099.03 341.562 1087.64 341.906 1043.2 341.906H987.171L975.597 325.869C969.232 317.048 963.634 309.59 963.157 309.295C962.68 309 956.993 316.217 950.52 325.333L938.751 341.906H860.242H781.734V323.906ZM1324.4 273.248V240.573H1422.42H1520.45L1520.09 272.906L1519.73 305.24L1422.07 305.582L1324.4 305.924V273.248ZM781.734 277.24V259.24H826.342H870.951L871.342 268.864L871.734 278.488L878.86 268.864L885.986 259.24L962.86 259.255L1039.73 259.27L1047.73 270.186C1052.13 276.19 1058.02 284.283 1060.81 288.171L1065.88 295.24H923.807H781.734V277.24ZM699.068 274.24C700.641 272.223 713.071 259.323 726.69 245.573C751.155 220.873 754.074 218.718 758.908 221.779C761.536 223.444 755.102 231.508 730.88 256.906L710.854 277.906H703.53H696.207L699.068 274.24ZM782.641 249.035C782.142 248.537 781.734 240.129 781.734 230.351V212.573H826.438H871.143L870.772 230.906L870.401 249.24L826.974 249.591C803.09 249.784 783.14 249.534 782.641 249.035ZM895.503 248.871C894.424 248.184 895.663 245.552 899.503 240.376C902.563 236.251 908.367 228.312 912.401 222.733L919.734 212.59L975.401 212.581C1006.02 212.576 1031.07 212.997 1031.07 213.515C1031.07 214.033 1028.67 217.878 1025.73 222.06C1022.8 226.242 1020.4 230.344 1020.4 231.175C1020.4 232.006 1022.83 235.973 1025.8 239.99C1028.76 244.007 1030.83 247.881 1030.38 248.6C1029.43 250.144 897.92 250.408 895.503 248.871ZM782.641 202.369C782.142 201.87 781.734 193.462 781.734 183.684V165.906H826.438H871.143L870.772 184.24L870.401 202.573L826.974 202.924C803.09 203.117 783.14 202.867 782.641 202.369ZM928.477 201.573C928.519 200.656 934.085 192.406 940.845 183.24L953.135 166.573L1008.77 166.225C1052.84 165.949 1064.4 166.226 1064.38 167.558C1064.36 168.483 1058.67 176.89 1051.74 186.24L1039.12 203.24H983.762C940.321 203.24 928.417 202.881 928.477 201.573ZM1324.4 167.906V135.24H1422.4H1520.4V167.906V200.573H1422.4H1324.4V167.906ZM782.323 154.851C781.951 153.883 781.817 145.625 782.024 136.499L782.401 119.906H826.401H870.401V137.906V155.906L826.699 156.258C791.497 156.541 782.866 156.268 782.323 154.851ZM962.661 155.588C962.341 155.03 967.785 146.623 974.759 136.906L987.438 119.24H1042.51C1072.8 119.24 1097.87 119.72 1098.24 120.308C1098.6 120.896 1093.33 129.146 1086.53 138.641L1074.16 155.906L1018.7 156.254C988.2 156.446 962.981 156.146 962.661 155.588ZM782.03 91.5731L782.401 73.2397H826.401H870.401L870.772 91.5731L871.143 109.906H826.401H781.659L782.03 91.5731ZM996.401 108.687C996.401 108.016 1002.02 99.7659 1008.89 90.3534L1021.39 73.2397L1076.48 72.8914C1106.78 72.6998 1131.99 72.9998 1132.5 73.5581C1133.02 74.1163 1127.65 82.5126 1120.59 92.2166L1107.73 109.86L1052.07 109.883C1019.29 109.897 996.401 109.405 996.401 108.687ZM1324.4 62.5644V29.889L1422.07 30.2311L1519.73 30.5731L1520.09 62.9064L1520.45 95.2397H1422.42H1324.4V62.5644ZM781.734 45.2397V27.2397H826.401H871.067V45.2397V63.2397H826.401H781.734V45.2397ZM1029.73 62.4479C1029.73 62.0125 1035.28 53.9307 1042.07 44.4885L1054.4 27.3207L1110.81 27.2802C1155.59 27.248 1167.02 27.5835 1166.24 28.9064C1165.12 30.7934 1153.11 47.3642 1145.94 56.9064L1141.19 63.2397H1085.46C1054.81 63.2397 1029.73 62.8834 1029.73 62.4479Z" fill="#FFFAFA"/>
</svg>